Coordinates
version=1
nRows=4
nColumns=107
inDegrees=yes

Units are S.I. units (second, meters, Newtons, ...)
If the header above contains a line with 'inDegrees', this indicates whether rotational values are in degrees (yes) or radians (no).

endheader
time	sternoclavicular_r2	sternoclavicular_r3	unrotscap_r3	unrotscap_r2	acromioclavicular_r2	acromioclavicular_r3	acromioclavicular_r1	unrothum_r1	unrothum_r3	unrothum_r2	elv_angle	shoulder_elv	shoulder1_r2	shoulder_rot	elbow_flexion	pro_sup	deviation	flexion	proximal_distal_r1	proximal_distal_r3	cmc_flexion	cmc_abduction	mp_flexion	ip_flexion	mcp2_flexion	mcp2_abduction	pm2_flexion	md2_flexion	mcp3_flexion	mcp3_abduction	pm3_flexion	md3_flexion	mcp4_flexion	mcp4_abduction	pm4_flexion	md4_flexion	mcp5_flexion	mcp5_abduction	pm5_flexion	md5_flexion	bicpt_tx	bicpt_ty	bicpt_tz	bicpt2_tx	bicpt2_ty	bicpt2_tz	ptpt_tx	ptpt_ty	ptpt_tz	FCUpt_tx	FCUpt_ty	FCUpt_tz	EDCpt_tx	EDCpt_ty	EDCpt_tz	APLpt_tx	APLpt_ty	APLpt_tz	FPLpt_tx	FPLpt_ty	FPLpt_tz	FPLpt2_tx	FPLpt2_ty	FPLpt2_tz	PEC1pt2_tx	PEC1pt2_ty	PEC1pt2_tz	PEC1pt3_tx	PEC1pt3_ty	PEC1pt3_tz	PEC2pt2_tx	PEC2pt2_ty	PEC2pt2_tz	PEC2pt3_tx	PEC2pt3_ty	PEC2pt3_tz	PEC3pt2_tx	PEC3pt2_ty	PEC3pt2_tz	PEC3pt3_tx	PEC3pt3_ty	PEC3pt3_tz	DELT2pt2a_tx	DELT2pt2a_ty	DELT2pt2a_tz	DELT2pt2_tx	DELT2pt2_ty	DELT2pt2_tz	LAT1pt2_tx	LAT1pt2_ty	LAT1pt2_tz	LAT1pt3_tx	LAT1pt3_ty	LAT1pt3_tz	LAT2pt2_tx	LAT2pt2_ty	LAT2pt2_tz	LAT2pt3_tx	LAT2pt3_ty	LAT2pt3_tz	LAT3pt2_tx	LAT3pt2_ty	LAT3pt2_tz	LAT3pt3_tx	LAT3pt3_ty	LAT3pt3_tz
      0.96666667	     -0.32374131	      0.13712154	     -0.13712154	      0.32374131	     -0.06555103	      0.52976036	      0.23812364	     -0.23812364	     -0.52976036	      0.06555103	     99.02285351	     76.64863250	     -1.72827483	    -20.67970647	     27.95817147	     18.99165564	     -0.00538197	     -0.64870697	     -0.00732775	     -0.32435348	     10.79604609	     -2.86057571	    -10.31860973	      0.12197975	      2.33183945	      7.11436470	     19.83517035	    -22.55631696	     19.82405880	      3.78546301	     26.97976410	     14.27028136	     13.64392203	     -0.16739766	     36.20079963	     22.62716865	    -10.56162082	    -12.20982672	     -3.60939547	      4.99837479	      0.00082477	     -0.03080443	     -0.00481615	      0.01603031	     -0.01779497	     -0.00940330	      0.00614673	     -0.06580738	     -0.00157988	      0.00573325	     -0.18386943	     -0.00007110	     -0.00227899	      0.00059376	      0.00017764	      0.00031130	      0.00012452	      0.00062260	      0.00039847	      0.00119540	      0.00067241	      0.00003162	     -0.00020515	     -0.00024618	      0.00251237	      0.00881460	      0.00613190	     -0.00821844	      0.01984350	     -0.01882151	      0.00251237	      0.00881460	      0.00613190	      0.00055357	      0.01839569	     -0.00966625	      0.00396613	      0.00490169	      0.01601194	      0.00000000	      0.00785773	      0.00000000	     -0.00719646	     -0.03325702	     -0.00647949	      0.01416540	     -0.00045290	     -0.00353776	     -0.00089423	      0.01498908	     -0.00613190	      0.00246979	      0.02163197	     -0.01788470	     -0.00600415	      0.01298770	     -0.00549316	     -0.01251929	      0.02742320	     -0.03070206	     -0.02350560	      0.01452067	     -0.00736679	     -0.01558524	      0.03168146	     -0.03836693
      1.00000000	     -0.32393863	      0.13720512	     -0.13720512	      0.32393863	     -0.06559098	      0.53008326	      0.23826878	     -0.23826878	     -0.53008326	      0.06559098	     99.13742345	     76.69535122	     -1.73027445	    -20.71496455	     27.65998110	     18.67654727	     -0.02448102	     -0.64474098	     -0.03371471	     -0.32237049	     17.05536205	     -6.85306639	     -7.97062666	      1.12279418	      0.18204114	      5.64305736	     19.39445163	    -22.87561256	     10.48346237	      1.13388180	     18.68469579	     12.15070658	      4.60385562	     -0.95769177	     25.34564273	     18.78416797	    -13.74434265	    -12.07473321	     -4.37505520	      5.03790658	      0.00081491	     -0.03077026	     -0.00481065	      0.01601446	     -0.01771397	     -0.00942758	      0.00617001	     -0.06579232	     -0.00155450	      0.00570359	     -0.18387409	     -0.00006384	     -0.00224118	      0.00058300	      0.00017629	      0.00031154	      0.00012462	      0.00062308	      0.00039877	      0.00119632	      0.00067293	      0.00001903	     -0.00026478	     -0.00031774	      0.00251391	      0.00881997	      0.00613563	     -0.00822345	      0.01985559	     -0.01883299	      0.00251391	      0.00881997	      0.00613563	      0.00055391	      0.01840690	     -0.00967214	      0.00396789	      0.00490467	      0.01601621	      0.00000000	      0.00786738	      0.00000000	     -0.00720085	     -0.03327729	     -0.00648750	      0.01418541	     -0.00045400	     -0.00355039	     -0.00089478	      0.01499821	     -0.00613563	      0.00247130	      0.02164515	     -0.01789560	     -0.00600781	      0.01299561	     -0.00549650	     -0.01252692	      0.02743992	     -0.03072077	     -0.02351993	      0.01452952	     -0.00737128	     -0.01559473	      0.03170077	     -0.03839032
      1.03333333	     -0.32432727	      0.13736973	     -0.13736973	      0.32432727	     -0.06566968	      0.53071922	      0.23855464	     -0.23855464	     -0.53071922	      0.06566968	     99.13493869	     76.78736475	     -1.73023108	    -20.35973902	     27.52645409	     17.89308695	     -0.02819469	     -0.63236178	     -0.03891483	     -0.31618089	     22.54772998	    -10.25304972	     -4.81943403	      2.48101863	     -2.02105466	      4.47522219	     19.06082952	    -23.22574533	      3.28166763	     -0.73891497	     13.93315870	     11.88234869	     -2.19919464	     -1.77725448	     17.46188021	     17.03735161	    -16.27683326	    -11.92014020	     -4.05751722	      5.08700246	      0.00081049	     -0.03075495	     -0.00480818	      0.01597408	     -0.01767770	     -0.00948736	      0.00622790	     -0.06575489	     -0.00149138	      0.00562996	     -0.18388556	     -0.00004546	     -0.00214717	      0.00055638	      0.00017269	      0.00031212	      0.00012485	      0.00062423	      0.00039951	      0.00119853	      0.00067417	      0.00000569	     -0.00028125	     -0.00033750	      0.00251692	      0.00883055	      0.00614299	     -0.00823332	      0.01987941	     -0.01885558	      0.00251692	      0.00883055	      0.00614299	      0.00055458	      0.01842898	     -0.00968375	      0.00397135	      0.00491056	      0.01602460	      0.00000000	      0.00788640	      0.00000000	     -0.00720949	     -0.03331721	     -0.00650329	      0.01398299	     -0.00044301	     -0.00342408	     -0.00089585	      0.01501621	     -0.00614299	      0.00247426	      0.02167112	     -0.01791707	     -0.00601502	      0.01301120	     -0.00550310	     -0.01254195	      0.02747284	     -0.03075763	     -0.02354815	      0.01454695	     -0.00738013	     -0.01561344	      0.03173880	     -0.03843637
      1.06666667	     -0.32410862	      0.13727711	     -0.13727711	      0.32410862	     -0.06562540	      0.53036142	      0.23839381	     -0.23839381	     -0.53036142	      0.06562540	     99.27673777	     76.73559694	     -1.73270594	    -20.53432187	     27.33448288	     17.23779674	     -0.02656621	     -0.63299037	     -0.03663173	     -0.31649519	     27.64325125	    -12.87106443	     -1.68529728	      3.64063017	     -3.92806379	      3.93365331	     18.37880543	    -23.69921103	     -2.02343678	     -1.55960597	     11.80809450	     12.01359971	     -7.35030256	     -2.04231595	     13.09506045	     16.73755904	    -17.98742466	    -11.48704978	     -3.54320052	      5.08588322	      0.00080414	     -0.03073295	     -0.00480464	      0.01593922	     -0.01762555	     -0.00953671	      0.00627632	     -0.06572358	     -0.00143860	      0.00556852	     -0.18389501	     -0.00002974	     -0.00206853	      0.00053426	      0.00016943	      0.00031210	      0.00012484	      0.00062421	      0.00039949	      0.00119848	      0.00067414	     -0.00000487	     -0.00026656	     -0.00031987	      0.00251522	      0.00882460	      0.00613885	     -0.00822777	      0.01986601	     -0.01884287	      0.00251522	      0.00882460	      0.00613885	      0.00055420	      0.01841656	     -0.00967722	      0.00396941	      0.00490725	      0.01601988	      0.00000000	      0.00787569	      0.00000000	     -0.00720463	     -0.03329475	     -0.00649440	      0.01408269	     -0.00044840	     -0.00348591	     -0.00089525	      0.01500608	     -0.00613885	      0.00247259	      0.02165651	     -0.01790499	     -0.00601096	      0.01300243	     -0.00549939	     -0.01253349	      0.02745431	     -0.03073690	     -0.02353227	      0.01453714	     -0.00737515	     -0.01560292	      0.03171741	     -0.03841046
